<svg id="Layer_1" data-name="Layer 1" xmlns="http://www.w3.org/2000/svg" viewBox="0 0 896.19 896.19"><defs><style>.cls-1{fill:#4b3831;}.cls-2{fill:#fefefe;}.cls-3{fill:#b6a26e;}.cls-4{fill:#fbeccf;}.cls-5{fill:#febf9e;}.cls-6{fill:#010000;}.cls-7{fill:#030303;}.cls-8{fill:#989797;}.cls-9{fill:#2e231f;}.cls-10{fill:#987360;}.cls-11{fill:#998f7e;}.cls-12{fill:#673833;}.cls-13{fill:#fdfcfb;}.cls-14{fill:#ab5c51;}.cls-15{fill:#bcd9cf;}</style></defs><title>jedi-github</title><path class="cls-1" d="M701,93h22c.27,1.09,1.18.91,2,1a159,159,0,0,1,25.63,6.29c30,9.83,58,24.12,85.19,39.9A27.68,27.68,0,0,0,850.48,144c22.85-.28,45.55-2.7,68.17-5.47,36.56-4.46,73-5.26,109.53,0,22.16,3.16,44.08,2.07,65.41-5.88,16-6,32.29-11.3,48.42-17,22.24-7.86,44.37-16.1,67.73-20.25,20.31-3.6,27.87.54,35.66,19.57a130.31,130.31,0,0,1,6.55,22c6.38,29.56,8.49,59.6,9.52,89.73.37,10.74,1.23,20.35,8.26,30.08,32.87,45.5,41.43,97.39,36.77,152.2-1.25,14.75-3.59,29.44-4.38,44.21-1.68,31.4-2.2,62.81-6.88,94-2.77,18.56-11.08,32.32-26.58,42.33a142.81,142.81,0,0,1-21,11.38c-36.1,15.5-74.4,22.19-112.89,28.14-18.08,2.79-36.36,4.26-54.29,8.07-29.09-2.35-52,12-74.77,27,24-9.67,48.32-17.4,74.64-16.21,17.76,27.4,42.31,45.33,74.49,51.49a124.77,124.77,0,0,0,67.27-5.19c.42,2.32-1.4,3.67-2.45,5.26a21.28,21.28,0,0,0-3.59,9.17c-1,8-2.11,16.07-2.81,24.14-.25,2.81-1.42,5.94.91,8.57-4,3.2-1.42,7.62-2.12,11.43,0,1.41,0,2.82-.07,4.24-1.46,1.34-.93,3.11-.91,4.71a108.45,108.45,0,0,0,3.15,24.08c2,8.11,4.55,16,12.82,20.21-1.39,1.22-3.14,1-4.76,1.1-19.37,1.71-37.76-2.75-55.57-9.61-36.12-13.9-72.11-28.17-108.08-42.47-4.17-1.66-4.83-.86-4.86,3.37a351.24,351.24,0,0,0,3.3,47.3c2.81,21.76,6.21,43.44,11.69,64.73.85,3.71,1.54,7.46,2.58,11.12,2.31,8.12,5.12,16.12,7.15,24.31,3.06,12.37-1.46,19.25-14,22.23-1.76.42-3.57.61-5.37.91a90.05,90.05,0,0,1-19.33.93c-10.32-.61-20.54-1.92-29.34-8-10.46-7.26-14-18.32-16.49-30.11-2.29-11.06-2.31-22.35-4-33.46.12-6.32,0-12.65.39-19,1.91-34.89,4-69.77,4.26-104.73.15-16.8.79-33.59,3.41-50.25,3.31-20.94,9.66-40.57,25.31-55.76,15.14-14.69,32.72-26.12,51-36.5,1.77.1,3.16-.89,4.63-1.64q25.32-12.85,50.62-25.73A208.15,208.15,0,0,0,1155,550c4.21-2.94,6.35-7,5.93-11.91a59.36,59.36,0,0,0-6.76-23.17c-2-8.87-6.32-17-8.13-26a48.62,48.62,0,0,1-2-12.1c-.4-9.43,2.33-18.63,2.1-28a165.82,165.82,0,0,0,5.75-34.77c.24-.22.65-.43.68-.68,2-13.62,4.15-27.27,3.2-41.07-.23-3.31.74-7.48-2.82-10.07,2-1.55.76-3.28.29-5-4.07-14.84-11.79-27.83-20.71-40.13-10.14-14-20.82-27.6-30.79-41.72-18.51-26.2-42.78-43.07-74.75-48.74a424.36,424.36,0,0,0-43.4-5.39c-15.92-1.14-31.83-1-47.23,4.92-22.75,8.75-40.36,23.95-55.53,42.5-20.1,24.57-33.36,52.66-42.75,82.75-5.28,15-11.11,29.9-15.31,45.31a48.11,48.11,0,0,0-2.32,4.94c-7.62,22.85-15.48,45.62-24,68.15-2.45,6.48-4.81,13.1-5.31,20.15-3.81,11.14-4.41,22.67-4,34.28.54,15.67,4.93,30.2,14.74,42.55,4.13,5.19,8.34,10.79,15,13.35l.06.07.94.89,3.18,2.75c2.07,1.64,4,3.42,6.23,4.9,23.72,16.1,49.82,27.58,75.89,39.15,11.3,5,23.49,8.45,32.71,17.41l.79.89.17.11c1.66,4.7,4.82,8.64,6.4,13.42,7.17,21.7,5.84,43.55,1.17,65.39-1.76,8.26-4.62,16.37-4.12,24.91a293.31,293.31,0,0,0,5.5,42.36c.4,2-.66,4.52,1.86,5.83l0,1.79c-1,1.67-.77,3.11.89,4.24.37,2.78.72,5.57,1.11,8.36,2.17,15.37,5.14,30.65,5.44,46.24,1.4,19.59-3.41,37.77-11.95,55.26-4.17,8.53-10.66,13-19.71,15-9.46,2-18.42,0-27.45-2.19-11.84-6.53-24.76-9.36-38-11.05-2.15-1.35-4.65-1.51-7-2-10.6-2.44-19.67-6.91-23.9-17.87a19.93,19.93,0,0,1,5-17,20.33,20.33,0,0,0,2.17-3.82,12,12,0,0,0,2.63-9.76c-1.09-9.14-.38-18.26-.13-27.4.45-16.27,2.64-32.53.53-48.83-1-7.56-4-9.85-11.41-8.52-10.94,2-20.63,7.26-30.64,11.65-13.39,5.88-26.65,12.07-41.32,14.18-15.16,2.19-30.12,2-44.77-3.3a21.37,21.37,0,0,1-14.25-15.36,77.32,77.32,0,0,1-2.7-15.19c-1.33-18.77-1.17-37.58-.87-56.38a18.76,18.76,0,0,0-1.07-6.29c.88-.13,1.65-.5,1.71-1.47.62-10.3,3.22-20.18,6.09-30,1.59-2.69,3.74-5.13,4.07-8.44,2.61-3.72,6-6.84,8-11,6,0,8.47,4.78,11.4,8.61,22.29,29.18,50.89,42.86,87.92,36.37,13.79-2.41,27-5.75,36.1-17.8,8.17-10.82,14.19-22.43,15-36.25,26.49.08,51.27,8.15,76.1,17.06,0-2.18-1.24-2.33-2-2.77-17.34-9.27-35.39-16.93-54.41-21.93-8.26-2.16-16.57-5-25.38-4.23-8.85-1.48-17.75-2.63-26.51-4.68-33.67-7.89-66.7-18.26-100.38-26.08C703.6,601.71,679.57,596,657.53,584c-14.13-7.67-27.64-16.13-37.13-29.59C615.19,547,613,539,614.85,529.88a147.72,147.72,0,0,1,7.75-26.26c6.93-17.24,11.49-34.82,7.1-53.51-2.65-11.3-3.2-22.79-3.11-34.25A375.28,375.28,0,0,1,637,330.78c6.31-26.32,14.18-52.21,29.76-74.63,9.65-13.9,13-28.83,13.29-45.11.35-19-1.54-37.93-2.44-56.89-.63-13.34-.8-26.66,2.52-39.71,2.18-8.56,6.46-15.67,15.12-19.27C697.12,94.38,699.46,94.75,701,93ZM939.39,667.58l-.68-.21.11.37Z" transform="translate(-512.91 -92.9)"/><path class="cls-2" d="M1222.08,694.21a124.77,124.77,0,0,1-67.27,5.19c-32.18-6.16-56.73-24.09-74.49-51.49-.82-3.62-3.13-7.25.13-10.81,17.93-3.81,36.21-5.28,54.29-8.07,38.49-5.95,76.79-12.64,112.89-28.14a142.81,142.81,0,0,0,21-11.38c15.5-10,23.81-23.77,26.58-42.33,4.68-31.24,5.2-62.65,6.88-94,.79-14.77,3.13-29.46,4.38-44.21,4.66-54.81-3.9-106.7-36.77-152.2-7-9.73-7.89-19.34-8.26-30.08-1-30.13-3.14-60.17-9.52-89.73a130.31,130.31,0,0,0-6.55-22c-7.79-19-15.35-23.17-35.66-19.57-23.36,4.15-45.49,12.39-67.73,20.25-16.13,5.7-32.4,11-48.42,17-21.33,8-43.25,9-65.41,5.88-36.55-5.22-73-4.42-109.53,0-22.62,2.77-45.32,5.19-68.17,5.47a27.68,27.68,0,0,1-14.69-3.81c-27.23-15.78-55.17-30.07-85.19-39.9A159,159,0,0,0,725,94c-.79-.12-1.7.06-2-1q340.75,0,681.5-.09c3.75,0,4.59.84,4.59,4.59q-.15,443.51,0,887c0,3.75-.84,4.6-4.59,4.59q-187.24-.17-374.5-.09a4.83,4.83,0,0,1,0-.85c37.11-.76,74.07-3.58,110.93-8,31.56-3.74,62.9-8.66,93.53-17.32,15.86-4.49,31.59-9.48,45-19.55,12.35-9.26,12.32-20.51-.16-29.77-14.61-10.84-31.74-15.87-48.93-20.55-29.24-8-59.12-12.58-89.18-16.21-24.11-2.91-48.29-4.91-72.52-6.35-5.48-21.29-8.88-43-11.69-64.73a351.24,351.24,0,0,1-3.3-47.3c0-4.23.69-5,4.86-3.37,36,14.3,72,28.57,108.08,42.47,17.81,6.86,36.2,11.32,55.57,9.61,1.62-.14,3.37.12,4.76-1.1,7.63,0,11.15-5,13.51-11.26,6.31-16.68,8.79-34,8.36-51.79a25.16,25.16,0,0,1,2.47-2.38,98.59,98.59,0,0,0,23.9-24.53c12.34-18.15,21.22-37.3,16.8-60.17-1.9-9.78-5.13-18.85-12.38-26.11-9.23-9.25-28.37-8-32,9a73.2,73.2,0,0,0-1.46,19.83c.54,8.35-2.46,15.23-7.53,21.53A57.21,57.21,0,0,1,1222.08,694.21Z" transform="translate(-512.91 -92.9)"/><path class="cls-2" d="M690.11,710a18.76,18.76,0,0,1,1.07,6.29c-.3,18.8-.46,37.61.87,56.38a77.32,77.32,0,0,0,2.7,15.19A21.37,21.37,0,0,0,709,803.2c14.65,5.26,29.61,5.49,44.77,3.3,14.67-2.11,27.93-8.3,41.32-14.18,10-4.39,19.7-9.7,30.64-11.65,7.41-1.33,10.43,1,11.41,8.52,2.11,16.3-.08,32.56-.53,48.83-.25,9.14-1,18.26.13,27.4a12,12,0,0,1-2.63,9.76c-21.37,1.9-42.57,5-63.66,8.84-25.53,4.68-50.85,10.19-74.7,20.92-7.64,3.44-14.87,7.53-20.32,14.11-4.88,5.91-4.95,12.82-.1,18.7a39.85,39.85,0,0,0,6.48,6.17c8.72,6.65,18.76,10.72,29,14.16,43.49,14.57,88.65,20.27,134,24.9,26.31,2.69,52.71,4.21,79.14,5.18q0,.42,0,.84-203.25,0-406.5.09c-3.75,0-4.59-.84-4.59-4.59q.15-443.5,0-887c0-3.75.84-4.6,4.59-4.6q91.75.21,183.5.1c-1.54,1.75-3.88,1.38-5.78,2.17-8.66,3.6-12.94,10.71-15.12,19.27-3.32,13-3.15,26.37-2.52,39.71.9,19,2.79,37.87,2.44,56.89-.29,16.28-3.64,31.21-13.29,45.11-15.58,22.42-23.45,48.31-29.76,74.63a375.28,375.28,0,0,0-10.38,85.08c-.09,11.46.46,22.95,3.11,34.25,4.39,18.69-.17,36.27-7.1,53.51a147.72,147.72,0,0,0-7.75,26.26c-1.83,9.12.34,17.16,5.55,24.55,9.49,13.46,23,21.92,37.13,29.59,22,12,46.07,17.69,70.25,23.31,33.68,7.82,66.71,18.19,100.38,26.08,8.76,2.05,17.66,3.2,26.51,4.68,4.15,2.88,5.45,7.13,5.74,11.87-.8,13.82-6.82,25.43-15,36.25-9.09,12-22.31,15.39-36.1,17.8-37,6.49-65.63-7.19-87.92-36.37C718.47,663.81,716,659,710,659c-6.14-11-13.22-21.26-23.44-28.8-15.53-11.47-32.33-19.87-52.41-18.57-5.15.33-11,.88-12.91,6.64s2.41,9.63,5.78,13.53a10.89,10.89,0,0,0,2.81,2c11.94,7,21.86,16.24,30.81,26.65C673.35,675.3,682.35,692.27,690.11,710Z" transform="translate(-512.91 -92.9)"/><path class="cls-3" d="M924,988.16c-26.43-1-52.83-2.49-79.14-5.18-45.34-4.63-90.5-10.33-134-24.9-10.27-3.44-20.31-7.51-29-14.16a39.85,39.85,0,0,1-6.48-6.17c-4.85-5.88-4.78-12.79.1-18.7,5.45-6.58,12.68-10.67,20.32-14.11,23.85-10.73,49.17-16.24,74.7-20.92,21.09-3.87,42.29-6.94,63.66-8.84a20.33,20.33,0,0,1-2.17,3.82,19.93,19.93,0,0,0-5,17l-7.82,4.3c-4.42,2.4-8.39,5.36-11.17,9.63-3.4,5.24-2.07,9.16,3.74,11.26a17.53,17.53,0,0,0,4.33,1c14.44,1.26,28.29-1.53,41.85-6.25,13.25,1.69,26.17,4.52,38,11.05a23.36,23.36,0,0,0-4.31,8.34c-1.4,5.66.63,8.89,6.37,10.16a15.83,15.83,0,0,0,6.43,0,81.26,81.26,0,0,0,48.06-28c12-14.24,16.69-31.07,16.59-49.44l14.86-.09c.07,1.32.17,2.64.22,4,1.23,36.23,28,67.53,62.5,73.21,5,.82,10.29,1.86,13.9-2.58s.23-9.11-1.45-13.5c1.79-.3,3.6-.49,5.36-.91,12.55-3,17.07-9.86,14-22.23-2-8.19-4.84-16.19-7.15-24.31-1-3.66-1.73-7.41-2.58-11.12,24.23,1.44,48.41,3.44,72.52,6.35,30.06,3.63,59.94,8.25,89.18,16.21,17.19,4.68,34.32,9.71,48.93,20.55,12.48,9.26,12.51,20.51.16,29.77-13.46,10.07-29.19,15.06-45,19.55-30.63,8.66-62,13.58-93.53,17.32-36.86,4.38-73.82,7.2-110.93,8-7,.21-14.07-1-21,.85H951C942,987.57,933,988.22,924,988.16Z" transform="translate(-512.91 -92.9)"/><path class="cls-4" d="M924,988.16c9,.06,18-.59,27,.84H924Q924,988.58,924,988.16Z" transform="translate(-512.91 -92.9)"/><path class="cls-5" d="M1009,989c6.94-1.87,14-.64,21-.85a4.83,4.83,0,0,0,0,.85Z" transform="translate(-512.91 -92.9)"/><path class="cls-5" d="M821,583.88l-3.18-2.75c0-.62-.29-.94-.94-.89l-.06-.07c-.14-2-1.68-3.19-2.62-4.72-9.48-15.42-8.91-31.87-5-48.66,2.52.82,3.84,3.1,5.74,4.68,6.7,5.56,14.29,9.09,23.05,9.48,16.47.73,28.35-7.82,37.08-20.49,15.86-23,19-48.79,13.31-75.7C883.51,422,873,403.13,849.94,393.94a39.38,39.38,0,0,1,.58-3.92q4.82-19.29,9.7-38.58a310.33,310.33,0,0,1,49.25,2.16c27.93,3.45,55.85,6.07,84,4.41,26.88-1.58,53.45-6.56,80.45-6.74,19.45-.13,38.93-1.23,58,3.8l1.28.67a4.15,4.15,0,0,0,.64.46,14.46,14.46,0,0,0,.28,3.44c4.4,13.48,4.2,27.38,3.82,41.3-21.13-14.86-42.75-7.49-56.31,9.59-10.16,12.79-15.07,27.51-16.92,43.48-3,25.74,1.56,49.6,17.67,70.54,10.1,13.12,27.4,19.26,42.06,15.14,5.85-1.65,10.71-5.22,16-8,.22,7.93-1.75,14.59-8.24,20.14-13.39,11.48-28.62,20.18-43.13,30-.76-.25-1.59-.84-2.28-.7a270.26,270.26,0,0,0-33.58,8.75,239.26,239.26,0,0,0-47.73,22.3q-28.85-.07-57.69-.12c-.56,0-1.13.52-1.7.8-12-6.17-24.89-9.86-37.75-13.6-24.83-7.22-50.21-11.8-75.82-15C828.83,583.75,824.87,581.46,821,583.88Zm153-1c8.15,0,16.3,0,24.45,0,3.43,0,6.54-.33,6.6-4.78.07-4.61-3.49-4.83-6.63-4.86-16.63-.11-33.27-.08-49.9,0-3.38,0-6.6.85-6.44,5.16.15,4.06,3.28,4.46,6.47,4.46Zm-13.1-50.52c-.08,7.48,5.13,12.91,12.63,13.19,6.87.25,13.08-5.85,13.16-12.93A12.76,12.76,0,0,0,974,519.9C966.47,519.76,961,525,960.9,532.39Z" transform="translate(-512.91 -92.9)"/><path class="cls-6" d="M1132,355.07c-19.09-5-38.57-3.93-58-3.8-27,.18-53.57,5.16-80.45,6.74-28.17,1.66-56.09-1-84-4.41a310.33,310.33,0,0,0-49.25-2.16c-7.4-.86-14.8-.46-22.2,0,9.39-30.1,22.65-58.19,42.75-82.76,15.17-18.55,32.78-33.75,55.53-42.5,15.4-5.93,31.31-6.06,47.23-4.92a424.36,424.36,0,0,1,43.4,5.39c32,5.67,56.24,22.54,74.75,48.74,10,14.12,20.65,27.73,30.79,41.72,8.92,12.3,16.64,25.29,20.71,40.13.47,1.7,1.69,3.43-.29,5-6.27-2.24-12.17-5.62-19-6a4.15,4.15,0,0,1-.64-.46C1133.06,355.05,1132.59,354.91,1132,355.07Z" transform="translate(-512.91 -92.9)"/><path class="cls-4" d="M821,583.88c3.9-2.42,7.86-.13,11.58.34,25.61,3.23,51,7.81,75.82,15,12.86,3.74,25.76,7.43,37.76,13.6a108.9,108.9,0,0,1,30.22,18.08c1.1.93,1.89,2.68,3.94.74,7.77-7.31,16.62-13.25,25.22-19.5a239.26,239.26,0,0,1,47.73-22.3,270.26,270.26,0,0,1,33.58-8.75c.69-.14,1.52.45,2.28.7-4.79,3.66-10.66,5.76-14.8,10.34-18.28,10.38-35.86,21.81-51,36.5-15.65,15.19-22,34.82-25.31,55.76-2.62,16.66-3.26,33.45-3.41,50.25-.3,35-2.35,69.84-4.26,104.73-.35,6.31-.27,12.64-.39,19L984.1,860l-15.36.05L955,858.88c-.3-15.59-3.27-30.87-5.44-46.24-.39-2.79-.74-5.58-1.11-8.36.47-1.58.86-3.13-.89-4.24,0-.6,0-1.19,0-1.79.76-5.66-.75-11.18-1.07-16.78-.84-14.76-1.35-29.32,2.52-44,6-22.71,7.12-45.84,1.84-68.94a7.62,7.62,0,0,1,1.56-7.23c5.56-7.05,11.73-13.54,17.79-20.14l1-1,1-1c.18-.21.56-.54.52-.6-.37-.59-.69-.28-1,.13l-1.1.9c-.35.32-.7.64-1.06.95-6.87,4.4-12.64,10-18,16.09-1.95,2.2-3.13,2.93-4.95-.27-2.36-4.13-5.41-7.82-9.84-10l-.17-.11c.11-.63-.17-.91-.79-.89-9.22-9-21.41-12.4-32.71-17.41-26.07-11.57-52.17-23-75.89-39.15C825,587.3,823,585.52,821,583.88Z" transform="translate(-512.91 -92.9)"/><path class="cls-7" d="M1222.08,694.21a57.21,57.21,0,0,0,16.62-14.08c5.07-6.3,8.07-13.18,7.53-21.53a73.2,73.2,0,0,1,1.46-19.83c3.61-17,22.75-18.24,32-9,7.25,7.26,10.48,16.33,12.38,26.11,4.42,22.87-4.46,42-16.8,60.17a98.59,98.59,0,0,1-23.9,24.53,25.16,25.16,0,0,0-2.47,2.38c-1.61-.19-2.74.76-4.05,1.48-10.38,5.69-20.92,11-32.88,12.57,0-1.42,0-2.83.07-4.24l5-1.06a22.86,22.86,0,0,0,3.51-1.61c2.09-1.41,4.15-3.16,3.36-6s-3.28-3.35-6-3l-3.85.24c-2.33-2.63-1.16-5.76-.91-8.57.7-8.07,1.81-16.1,2.81-24.14a21.28,21.28,0,0,1,3.59-9.17C1220.68,697.88,1222.5,696.53,1222.08,694.21Zm55.66-50.05c4.1-.07,5.07-2,4.65-5-.65-4.59-7.09-10-11.76-10-3.09,0-4.66,1.51-4.2,4.69C1267.13,638.79,1273.64,644.3,1277.74,644.16ZM1236.05,740c4.15.06,10.4-4.11,11.92-7.94s-.19-6.39-4.26-6.11a13.67,13.67,0,0,0-11.54,7.59C1230.27,737.09,1232.16,740,1236.05,740ZM1276,661.51a12.6,12.6,0,0,0,1.8,7.65c1,1.79,2.41,3.25,4.75,3,2.13-.25,2.93-1.86,3.64-3.63a12.82,12.82,0,0,0,.41-8.31c-.87-3.23-2-7.2-6-6.81C1276.21,653.79,1276.15,658,1276,661.51Zm7.16,26.06c-.09-2.2.11-4.59-2.24-5.67s-4.53.07-6.21,1.86a14.4,14.4,0,0,0-4.18,11.29c.35,4.22,3.59,5.65,7,3.1A14.2,14.2,0,0,0,1283.14,687.57Zm-14,24.2c0-3-1.25-4.18-4.26-4-4.93.22-10.86,6.25-11.08,11.14-.15,3.26,1.37,4.53,4.5,4.3C1263.2,722.81,1269.14,716.6,1269.15,711.77Z" transform="translate(-512.91 -92.9)"/><path class="cls-7" d="M690.11,710c-7.76-17.71-16.76-34.68-29.47-49.46-8.95-10.41-18.87-19.69-30.81-26.65a10.89,10.89,0,0,1-2.81-2c-3.37-3.9-7.68-7.89-5.78-13.53s7.76-6.31,12.91-6.64c20.08-1.3,36.88,7.1,52.41,18.57,10.22,7.54,17.3,17.84,23.44,28.8-2,4.18-5.41,7.3-8,11-2.81.1-5.32,1-6.48,3.71-1,2.22.47,3.72,2.41,4.73-2.87,9.84-5.47,19.72-6.09,30C691.76,709.48,691,709.85,690.11,710Zm-13.77-78.17c-5.87,0-10.41,2.35-9.74,5.45,1.09,5,5.59,5.07,9.55,5.23,5.25.22,9.58-2.32,9.66-5.27S681.77,631.84,676.34,631.81ZM691,660.18c5.74,0,10.42-2.47,9.69-5.51-1.18-4.94-5.55-5.11-9.57-5.18-5.57-.09-9.42,2.17-9.49,5.28S685.55,660.14,691,660.18Zm-40.41-42.3c-5.19,0-9.46,2.56-9.43,5.52s4.35,5.43,9.54,5.44,9.51-2.35,9.66-5.31C660.55,620.32,656.24,617.82,650.62,617.88Z" transform="translate(-512.91 -92.9)"/><path class="cls-8" d="M791.05,490c.5-7.05,2.86-13.67,5.31-20.15,8.55-22.53,16.41-45.3,24-68.15a48.11,48.11,0,0,1,2.32-4.94,8.92,8.92,0,0,0,2.35-.49c7.77-3.92,15.83-4.25,24.12-2.08-.29,1.46-.61,2.91-.88,4.38-1.17,6.51-3.86,12.68-4.23,19.36l-1.09.17a13.14,13.14,0,0,0-4.86-.42c-10.82.95-18.31,7.09-23.28,16-12.54,22.37-12.28,44.95.27,67.34l.92,1.72c-3.51,7.09-4.71,14.92-7.18,22.33-5.73-5-8.5-11.91-11.9-18.45C794.2,501.29,793.8,495.24,791.05,490Z" transform="translate(-512.91 -92.9)"/><path class="cls-9" d="M1212,757c12-1.57,22.5-6.88,32.88-12.57,1.31-.72,2.44-1.67,4.05-1.48.43,17.79-2.05,35.11-8.36,51.79C1238.16,801,1234.64,806,1227,806c-8.27-4.2-10.87-12.1-12.82-20.21a108.45,108.45,0,0,1-3.15-24.08C1211,760.13,1210.49,758.36,1212,757Z" transform="translate(-512.91 -92.9)"/><path class="cls-7" d="M955,858.88l13.71,1.2c.11,2.64.21,5.28.32,7.92.1,18.37-4.58,35.2-16.59,49.44a81.26,81.26,0,0,1-48.06,28,15.83,15.83,0,0,1-6.43,0c-5.74-1.27-7.77-4.5-6.37-10.16a23.36,23.36,0,0,1,4.31-8.34c9,2.21,18,4.23,27.45,2.19,9-2,15.54-6.46,19.71-15C951.62,896.65,956.43,878.47,955,858.88Z" transform="translate(-512.91 -92.9)"/><path class="cls-10" d="M791.05,490c2.75,5.25,3.15,11.3,5.9,16.59,3.4,6.54,6.17,13.44,11.9,18.45l.33,1.76c-3.92,16.79-4.49,33.24,5,48.66.94,1.53,2.48,2.75,2.62,4.72-6.68-2.56-10.89-8.16-15-13.35-9.81-12.35-14.2-26.88-14.74-42.55C786.64,512.66,787.24,501.13,791.05,490Z" transform="translate(-512.91 -92.9)"/><path class="cls-10" d="M849.18,394.18c-8.29-2.17-16.35-1.84-24.12,2.08a8.92,8.92,0,0,1-2.35.49c4.2-15.41,10-30.27,15.31-45.31,7.4-.46,14.8-.86,22.2,0q-4.86,19.29-9.7,38.58a39.38,39.38,0,0,0-.58,3.92C849.69,394,849.44,394.11,849.18,394.18Z" transform="translate(-512.91 -92.9)"/><path class="cls-10" d="M1074.3,592.16c4.14-4.58,10-6.68,14.8-10.34,14.51-9.8,29.74-18.5,43.13-30,6.49-5.55,8.46-12.21,8.25-20.13l.67-2.62c1.84-.17,2.76-1.56,3.79-2.83,3-3.79,6.12-7.55,9.18-11.33a59.45,59.45,0,0,1,6.76,23.18c.42,4.88-1.72,9-5.93,11.91a208.15,208.15,0,0,1-25.4,14.77q-25.3,12.86-50.62,25.73C1077.46,591.27,1076.07,592.26,1074.3,592.16Z" transform="translate(-512.91 -92.9)"/><path class="cls-7" d="M984.1,860l5.83-1.67c1.68,11.11,1.7,22.4,4,33.46,2.44,11.79,6,22.85,16.49,30.11,8.8,6.09,19,7.4,29.34,8a90.05,90.05,0,0,0,19.33-.93c1.69,4.39,5.17,8.93,1.46,13.5s-8.88,3.4-13.9,2.58c-34.51-5.68-61.27-37-62.5-73.21,0-1.33-.15-2.65-.22-4Z" transform="translate(-512.91 -92.9)"/><path class="cls-11" d="M970.21,641.2c-6.06,6.6-12.23,13.09-17.79,20.14a7.62,7.62,0,0,0-1.56,7.23c5.28,23.1,4.16,46.23-1.84,68.94-3.87,14.64-3.36,29.2-2.52,44,.32,5.6,1.83,11.12,1.07,16.78-2.52-1.31-1.46-3.87-1.86-5.83a293.31,293.31,0,0,1-5.5-42.36c-.5-8.54,2.36-16.65,4.12-24.91,4.67-21.84,6-43.69-1.17-65.39-1.58-4.78-4.74-8.72-6.4-13.42,4.43,2.22,7.48,5.91,9.84,10,1.82,3.2,3,2.47,4.95.27,5.38-6,11.15-11.69,18-16.09C969.78,640.78,970,641,970.21,641.2Z" transform="translate(-512.91 -92.9)"/><path class="cls-10" d="M1133.88,356.2c6.84.41,12.74,3.79,19,6,3.56,2.59,2.59,6.76,2.82,10.07,1,13.8-1.2,27.45-3.2,41.07,0,.25-.44.46-.68.68-2.06-.19-2.82-1.87-4-3.24-2.81-3.31-5.42-6.89-9.48-8.89l-.39-1c.38-13.92.58-27.82-3.82-41.3A14.46,14.46,0,0,1,1133.88,356.2Z" transform="translate(-512.91 -92.9)"/><path class="cls-7" d="M857.91,915.89c-13.56,4.72-27.41,7.51-41.85,6.25a17.53,17.53,0,0,1-4.33-1c-5.81-2.1-7.14-6-3.74-11.26,2.78-4.27,6.75-7.23,11.17-9.63L827,896c4.23,11,13.3,15.43,23.9,17.87C853.26,914.38,855.76,914.54,857.91,915.89Z" transform="translate(-512.91 -92.9)"/><path class="cls-12" d="M1146.08,448.82c.23,9.41-2.5,18.61-2.1,28a48.62,48.62,0,0,0,2,12.1c-3.46,4.62-4.39,10.77-8.94,14.73a157.67,157.67,0,0,1-3.26-31.95c-.07-14.25,2-28.35,2.32-42.55C1141.63,434.62,1144.59,441.35,1146.08,448.82Z" transform="translate(-512.91 -92.9)"/><path class="cls-9" d="M1080.45,637.1c-3.26,3.56-1,7.19-.13,10.81-26.32-1.19-50.66,6.54-74.64,16.21C1028.4,649.1,1051.36,634.75,1080.45,637.1Z" transform="translate(-512.91 -92.9)"/><path class="cls-9" d="M860.41,650c-.29-4.74-1.59-9-5.74-11.87,8.81-.75,17.12,2.07,25.38,4.23,19,5,37.07,12.66,54.41,21.93.81.44,2,.59,2,2.77C911.68,658.11,886.9,650,860.41,650Z" transform="translate(-512.91 -92.9)"/><path class="cls-8" d="M1146.08,448.82c-1.49-7.47-4.45-14.2-10-19.63,0-.37,0-.74-.08-1.1.93-1.67.84-3.52,1-5.34.44-6.94.92-13.89,1.38-20.83,4.06,2,6.67,5.58,9.48,8.89,1.16,1.37,1.92,3.05,4,3.24A165.82,165.82,0,0,1,1146.08,448.82Z" transform="translate(-512.91 -92.9)"/><path class="cls-8" d="M1137.05,503.69c4.55-4,5.48-10.11,8.94-14.73,1.81,8.94,6.08,17.11,8.13,26-3.06,3.77-6.14,7.53-9.18,11.32-1,1.27-2,2.66-3.79,2.83-1.56-8.05-1.72-16.34-4.13-24.25Z" transform="translate(-512.91 -92.9)"/><path class="cls-11" d="M1214.14,741.35l3.85-.24a32.67,32.67,0,0,0-.92,10.61l-5,1.06C1212.72,749,1210.18,744.55,1214.14,741.35Z" transform="translate(-512.91 -92.9)"/><path class="cls-10" d="M697.91,678.49c-1.94-1-3.36-2.51-2.41-4.73,1.16-2.69,3.67-3.61,6.48-3.71C701.65,673.36,699.5,675.8,697.91,678.49Z" transform="translate(-512.91 -92.9)"/><path class="cls-11" d="M947.59,800c1.75,1.11,1.36,2.66.89,4.24C946.82,803.15,946.64,801.71,947.59,800Z" transform="translate(-512.91 -92.9)"/><path class="cls-9" d="M939.39,667.58l-.57.16-.11-.37Z" transform="translate(-512.91 -92.9)"/><path class="cls-11" d="M935.8,645.34c.62,0,.9.26.79.89Z" transform="translate(-512.91 -92.9)"/><path class="cls-10" d="M816.85,580.24c.65,0,.93.27.94.89Z" transform="translate(-512.91 -92.9)"/><path class="cls-13" d="M984.1,860l-.18,7.88-14.86.09c-.11-2.64-.21-5.28-.32-7.92Z" transform="translate(-512.91 -92.9)"/><path class="cls-13" d="M1137,504.84c2.41,7.91,2.57,16.2,4.13,24.25l-.67,2.62c-5.29,2.76-10.15,6.33-16,8-14.66,4.12-32-2-42.06-15.14-16.11-20.94-20.63-44.8-17.67-70.54,1.85-16,6.76-30.69,16.92-43.48,13.56-17.08,35.18-24.45,56.31-9.59l.39,1c-.46,6.94-.94,13.89-1.38,20.83-.12,1.82,0,3.67-1,5.34l-2.17-2c-12.2-11.57-27.1-11.3-39,.7-19.3,19.54-19,61.81.57,81.09,5.7,5.61,12.4,8.68,20.65,8.37C1125.06,515.86,1131.12,510.59,1137,504.84Z" transform="translate(-512.91 -92.9)"/><path class="cls-13" d="M849.18,394.18c.26-.07.51-.15.76-.24,23,9.19,33.57,28.05,38.42,50.82,5.73,26.91,2.55,52.67-13.31,75.7C866.32,533.13,854.44,541.68,838,541c-8.76-.39-16.35-3.92-23.05-9.48-1.9-1.58-3.22-3.86-5.74-4.68l-.33-1.76c2.47-7.41,3.67-15.24,7.18-22.33,1.1,1.25,2.15,2.53,3.3,3.73,5.36,5.55,11.49,9.5,19.55,9.73,12.77.37,21.23-6.74,26.79-16.95,11.88-21.81,11.62-44-.65-65.68-4.57-8.08-11.46-13.77-20.95-15.61.37-6.68,3.06-12.85,4.23-19.36C848.57,397.09,848.89,395.64,849.18,394.18Z" transform="translate(-512.91 -92.9)"/><path class="cls-14" d="M974,582.91H948.55c-3.19,0-6.32-.4-6.47-4.46-.16-4.31,3.06-5.15,6.44-5.16,16.63-.07,33.27-.1,49.9,0,3.14,0,6.7.25,6.63,4.86-.06,4.45-3.17,4.8-6.6,4.78C990.3,582.88,982.15,582.91,974,582.91Z" transform="translate(-512.91 -92.9)"/><path class="cls-7" d="M1005.51,612.17c-8.6,6.25-17.45,12.19-25.22,19.5-2,1.94-2.84.19-3.94-.74a108.9,108.9,0,0,0-30.22-18.08c.56-.28,1.13-.8,1.69-.8Q976.67,612.06,1005.51,612.17Z" transform="translate(-512.91 -92.9)"/><path class="cls-14" d="M960.9,532.39c.08-7.4,5.57-12.63,13.14-12.49a12.76,12.76,0,0,1,12.65,12.75c-.08,7.08-6.29,13.18-13.16,12.93C966,545.3,960.82,539.87,960.9,532.39Z" transform="translate(-512.91 -92.9)"/><path class="cls-10" d="M1132,355.07c.63-.16,1.1,0,1.28.67Z" transform="translate(-512.91 -92.9)"/><path class="cls-11" d="M971.72,638.71c.29-.41.61-.72,1-.13,0,.06-.34.39-.52.6Z" transform="translate(-512.91 -92.9)"/><path class="cls-11" d="M970.63,639.61l1.1-.9c.14.16.29.31.45.47l-1,1C971,640,970.81,639.81,970.63,639.61Z" transform="translate(-512.91 -92.9)"/><path class="cls-11" d="M969.57,640.56c.36-.31.71-.63,1.06-.95.18.2.37.39.56.59l-1,1C970,641,969.78,640.78,969.57,640.56Z" transform="translate(-512.91 -92.9)"/><path class="cls-15" d="M1277.74,644.16c-4.1.14-10.61-5.37-11.31-10.3-.46-3.18,1.11-4.67,4.2-4.69,4.67,0,11.11,5.42,11.76,10C1282.81,642.12,1281.84,644.09,1277.74,644.16Z" transform="translate(-512.91 -92.9)"/><path class="cls-15" d="M1236.05,740c-3.89,0-5.78-2.91-3.88-6.46a13.67,13.67,0,0,1,11.54-7.59c4.07-.28,5.76,2.31,4.26,6.11S1240.2,740.06,1236.05,740Z" transform="translate(-512.91 -92.9)"/><path class="cls-15" d="M1276,661.51c.17-3.5.23-7.72,4.6-8.14,4-.39,5.13,3.58,6,6.81a12.82,12.82,0,0,1-.41,8.31c-.71,1.77-1.51,3.38-3.64,3.63-2.34.29-3.72-1.17-4.75-3A12.6,12.6,0,0,1,1276,661.51Z" transform="translate(-512.91 -92.9)"/><path class="cls-15" d="M1283.14,687.57a14.2,14.2,0,0,1-5.64,10.58c-3.4,2.55-6.64,1.12-7-3.1a14.4,14.4,0,0,1,4.18-11.29c1.68-1.79,3.76-3,6.21-1.86S1283.05,685.37,1283.14,687.57Z" transform="translate(-512.91 -92.9)"/><path class="cls-15" d="M1269.15,711.77c0,4.83-6,11-10.84,11.4-3.13.23-4.65-1-4.5-4.3.22-4.89,6.15-10.92,11.08-11.14C1267.9,707.59,1269.16,708.78,1269.15,711.77Z" transform="translate(-512.91 -92.9)"/><path class="cls-15" d="M1217.07,751.72a32.67,32.67,0,0,1,.92-10.61c2.67-.34,5.15.13,6,3s-1.27,4.58-3.36,6A22.86,22.86,0,0,1,1217.07,751.72Z" transform="translate(-512.91 -92.9)"/><path class="cls-15" d="M676.34,631.81c5.43,0,9.55,2.38,9.47,5.41s-4.41,5.49-9.66,5.27c-4-.16-8.46-.18-9.55-5.23C665.93,634.16,670.47,631.78,676.34,631.81Z" transform="translate(-512.91 -92.9)"/><path class="cls-15" d="M691,660.18c-5.48,0-9.43-2.31-9.37-5.41s3.92-5.37,9.49-5.28c4,.07,8.39.24,9.57,5.18C701.45,657.71,696.77,660.21,691,660.18Z" transform="translate(-512.91 -92.9)"/><path class="cls-15" d="M650.62,617.88c5.62-.06,9.93,2.44,9.77,5.65-.15,3-4.46,5.33-9.66,5.31s-9.5-2.47-9.54-5.44S645.43,617.93,650.62,617.88Z" transform="translate(-512.91 -92.9)"/><path class="cls-14" d="M844.07,417.92c9.49,1.84,16.38,7.53,20.95,15.61,12.27,21.67,12.53,43.87.65,65.68-5.56,10.21-14,17.32-26.79,16.95-8.06-.23-14.19-4.18-19.55-9.73-1.15-1.2-2.2-2.48-3.3-3.73l-.92-1.72c1.2-.49,1.57-1.53,2-2.66q3.67-9.78,7.5-19.49A385.36,385.36,0,0,0,843,418.09Z" transform="translate(-512.91 -92.9)"/><path class="cls-12" d="M843,418.09a385.36,385.36,0,0,1-18.38,60.74q-3.83,9.71-7.5,19.49c-.42,1.13-.79,2.17-2,2.66-12.55-22.39-12.81-45-.27-67.34,5-8.88,12.46-15,23.28-16A13.14,13.14,0,0,1,843,418.09Z" transform="translate(-512.91 -92.9)"/><path class="cls-14" d="M1137,504.84c-5.9,5.75-12,11-20.91,11.36-8.25.31-14.95-2.76-20.65-8.37-19.59-19.28-19.87-61.55-.57-81.09,11.87-12,26.77-12.27,39-.7l2.17,2c0,.36,0,.73.08,1.1-.34,14.2-2.39,28.3-2.32,42.55a157.67,157.67,0,0,0,3.26,31.95Z" transform="translate(-512.91 -92.9)"/></svg>